<defs>
<font horiz-adv-x="319" ><font-face
    font-family="winterthur-condensed-oblique"
    units-per-em="1000"
    panose-1="2 0 0 6 3 0 0 2 0 4"
    ascent="997"
    descent="-200"
    alphabetic="0" />
<missing-glyph horiz-adv-x="500" />
<glyph unicode=";" glyph-name="breve" horiz-adv-x="375" d="M293 788H255Q244 749 222 717Q199 685 181 685Q161 685 152 716Q144 749 150 788H115Q108 739 114 706Q118 691 123 679T136 658Q152 640 172 640Q183 640 193 645T215 658Q226 667 237 679T258
706Q280 739 293 788Z" />
<glyph unicode=";" glyph-name="dotaccent" horiz-adv-x="375" d="M210 643L224 706H166L152 643H210Z" />
<glyph unicode=";" glyph-name="ring" horiz-adv-x="376" d="M244 724Q251 758 241 785Q230 811 206 811Q182 811 161 785T132 724T135 664Q147 638 170 638Q194 638 215 664Q236 688 244 724ZM217 723Q210 699 201 685Q187 668 176 668Q164 668 159 685Q157
693 157 702T159 723Q164 746 175 762Q187 778 199 778Q213 778 217 762Q221 745 217 723Z" />
<glyph unicode="&#xa;" glyph-name="hungarumlaut" horiz-adv-x="376" d="M305 788H266L201 658H239L305 788ZM219 788H181L116 656H153L219 788Z" />
<glyph unicode=";" glyph-name="ogonek" horiz-adv-x="376" d="M225 -196L232 -166Q216 -176 204 -176Q185 -176 179 -164T176 -137Q180 -116 203 -83Q226 -49 254 -31H184Q142 -88 130 -138Q124 -169 138 -191Q153 -212 182 -212Q203 -212 225 -196Z" />
<glyph unicode=";" glyph-name="caron" horiz-adv-x="375" d="M291 788H244L183 707L157 788H111L141 662H208L291 788Z" />
<glyph unicode="&#xd;" glyph-name="dotlessi" horiz-adv-x="149" d="M45 0L163 558H105L-13 0H45Z" />
<glyph unicode=";" glyph-name="fraction" horiz-adv-x="53" d="M313 780H259L-260 4H-198L313 780Z" />
<glyph unicode=";" glyph-name="fi" horiz-adv-x="381" d="M251 0L370 558H167L176 599Q184 639 194 665T217 703Q239 724 268 724Q285 724 306 717L319 779Q290 788 271 788Q220 788 178 741Q137 696 113 582L108 558H57L47 510H98L-11 0H46L155 510H302L193
0H251Z" />
<glyph unicode=";" glyph-name="fl" horiz-adv-x="381" d="M251 0L415 771Q381 779 351 783T291 788Q239 788 205 762Q188 748 174 732T148 692T128 642T112 581L107 558H56L46 510H97L-12 0H46L155 510H256L266 558H165L174 602Q189 668 213 701Q238 735
275 735Q289 735 307 732T346 721L192 0H251Z" />
<glyph unicode=";" glyph-name="Lslash" horiz-adv-x="370" d="M279 0L292 58H41L112 393L172 422L183 474L121 443L188 758H126L51 406L-13 372L-24 321L37 353L-38 0H279Z" />
<glyph unicode=";" glyph-name="lslash" horiz-adv-x="148" d="M165 417L178 479L113 445L186 788H129L48 406L-17 371L-28 320L33 354L-42 0H19L101 384L165 417Z" />
<glyph unicode=";" glyph-name="Zcaron" horiz-adv-x="366" d="M335 927H289L238 896L200 927H155L207 851H247L335 927ZM239 0L254 66H0L378 677L396 758H104L91 701H325L-55 91L-75 0H239Z" />
<glyph unicode=";" glyph-name="zcaron" horiz-adv-x="352" d="M351 788H304L243 707L217 788H171L200 662H267L351 788ZM234 0L245 51H16L330 484L346 558H76L66 510L281 509L-36 78L-53 0H234Z" />
<glyph unicode=" " glyph-name="space" horiz-adv-x="271" />
<glyph unicode="!" glyph-name="exclam" horiz-adv-x="193" d="M216 758H139L39 224H89L216 758ZM45 0L59 63H1L-13 0H45Z" />
<glyph unicode="&quot;" glyph-name="quotedbl" horiz-adv-x="318" d="M289 788H224L177 518H220L289 788ZM154 788H87L42 517H85L154 788Z" />
<glyph unicode="#" glyph-name="numbersign" horiz-adv-x="424" d="M368 206L380 260H270L362 503H431L440 545H380L463 758H417L335 545H218L299 758H254L172 545H54L45 501H154L61 257H-7L-16 212H44L-38 0H8L89 211H207L124 0H171L251 206H368ZM318 500L224
258H108L201 500H318Z" />
<glyph unicode="$" glyph-name="dollar" horiz-adv-x="424" d="M333 206Q341 245 338 277Q335 312 316 338Q307 351 296 363T271 383L248 397L313 705Q335 699 346 681Q355 665 350 638L349 633H411L412 637Q419 676 404 713Q388 749 323 756L336 820H287L274
756Q224 747 191 720Q160 695 135 651Q124 631 116 608T102 560Q88 495 101 451Q107 428 124 407T170 365L186 354L122 52Q71 61 62 90Q57 104 57 121Q57 139 62 162L63 167H4L3 162Q-10 105 10 55Q29 6 110 0L98 -59H151L163 0Q211 10 244 40Q277 71 300 115Q323
160 333 206ZM205 431L193 439Q177 450 170 465T158 494Q152 524 160 562Q165 588 173 610T196 652Q220 691 263 703L205 431ZM272 194Q266 164 252 132Q239 103 221 82Q204 63 174 57L231 323L244 313Q257 302 264 290T275 263Q279 249 278 232T272 194Z" />
<glyph unicode="%" glyph-name="percent" horiz-adv-x="576" d="M522 221Q544 322 526 383Q508 442 461 442Q415 442 372 382T306 221Q285 119 303 60Q321 0 367 0Q413 0 457 60Q501 119 522 221ZM269 537Q290 638 272 698Q252 758 208 758Q162 758 119 698Q75
637 54 537Q32 436 50 376Q69 316 114 316Q159 316 203 376Q246 434 269 537ZM563 758H509L4 0H65L563 758ZM470 221Q455 146 429 95Q401 46 377 46Q352 46 347 95Q344 120 347 151T358 221Q375 297 400 346Q427 396 452 396Q476 396 482 346Q487 296 470 221ZM217
536Q209 498 199 467T175 410Q148 361 123 361Q98 361 94 410Q90 458 105 536Q113 574 123 605T147 662Q172 711 198 711Q224 711 228 662Q234 613 217 536Z" />
<glyph unicode="&amp;" glyph-name="ampersand" horiz-adv-x="463" d="M348 0Q331 38 320 67T301 120Q380 229 414 389L417 400H360L355 377Q338 301 324 264Q309 226 288 194Q272 250 258 313T232 449Q257 467 278 490T320 541Q358 596 370 653Q382 704 362 742Q344
780 296 780Q266 780 235 760Q206 740 182 699Q160 661 151 620Q149 612 148 603T146 584Q144 566 146 544Q147 533 149 514T157 468Q158 466 158 463Q158 460 159 455Q99 413 53 347Q8 281 -9 204Q-22 145 -13 90Q-9 63 0 43T23 7Q50 -23 98 -23Q117 -23 135 -18T170
-2Q207 19 246 63L253 41Q257 30 260 20T268 0H348ZM320 656Q314 625 288 582Q262 538 224 507Q222 517 221 522Q213 563 212 578Q212 586 212 595Q212 604 213 613Q213 622 214 630T217 646Q223 674 242 704Q261 732 285 732Q298 732 308 722Q319 712 322 693Q325
675 320 656ZM234 104Q211 79 193 63T161 42Q138 31 118 31Q93 31 71 53Q50 74 44 115Q41 135 42 156T48 202Q55 231 65 259T93 315Q109 343 128 365T169 404Q174 361 182 319T200 233Q210 190 218 158T234 104Z" />
<glyph unicode="&apos;" glyph-name="quotesingle" horiz-adv-x="192" d="M168 788H82L44 518H91L168 788Z" />
<glyph unicode="(" glyph-name="parenleft" horiz-adv-x="284" d="M137 -182Q120 -137 109 -97T94 -20Q89 17 89 56Q89 96 92 139Q94 183 100 225T115 311Q124 353 136 395T164 482Q195 569 233 641Q252 677 280 717T344 803H304Q278 775 251 741T198 663Q145
577 111 488Q75 398 57 311Q48 266 43 222T35 133Q32 41 48 -42Q64 -126 93 -182H137Z" />
<glyph unicode=")" glyph-name="parenright" horiz-adv-x="284" d="M227 311Q236 355 241 399T249 488T247 576T235 663T215 740T189 803H149Q183 713 190 641Q194 605 194 566T192 482Q190 438 184 396T169 311Q160 268 148 226T120 139Q104 96 87 57T50 -20Q30
-56 3 -96T-63 -182H-19Q7 -154 33 -120T86 -42Q139 42 174 133Q191 178 204 222T227 311Z" />
<glyph unicode="*" glyph-name="asterisk" horiz-adv-x="323" d="M294 603L296 654L188 626L215 730H165L147 623L49 652L30 604L131 584L46 490L80 465L153 553L186 465L232 491L187 584L294 603Z" />
<glyph unicode="+" glyph-name="plus" horiz-adv-x="424" d="M381 249L391 297H241L294 545H246L193 297H44L34 249H183L130 0H178L231 249H381Z" />
<glyph unicode="," glyph-name="comma" horiz-adv-x="193" d="M150 29L165 100H86L65 0H104Q98 -29 89 -51Q84 -63 79 -73T68 -95Q54 -116 38 -131L29 -173Q45 -164 58 -153T83 -128Q106 -99 122 -67Q136 -36 150 29Z" />
<glyph unicode="-" glyph-name="hyphen" horiz-adv-x="241" d="M212 311L222 359H29L19 311H212Z" />
<glyph unicode="." glyph-name="period" horiz-adv-x="193" d="M98 0L120 102H38L16 0H98Z" />
<glyph unicode="/" glyph-name="slash" horiz-adv-x="342" d="M405 780H352L-63 4H-7L405 780Z" />
<glyph unicode="0" glyph-name="zero" horiz-adv-x="424" d="M388 379Q408 473 411 545T401 672Q375 780 297 780Q219 780 147 672T36 379Q-3 191 23 85Q48 -23 127 -23Q205 -23 277 85T388 379ZM329 379Q300 239 250 136Q201 30 138 30Q78 30 72 136Q67 241 96
379Q124 514 176 622Q226 729 287 729Q348 729 354 622Q356 568 350 508T329 379Z" />
<glyph unicode="1" glyph-name="one" horiz-adv-x="424" d="M193 0L354 758H301L182 683L170 624L279 684L134 0H193ZM10 57L-2 0H309L321 57H70V57H10Z" />
<glyph unicode="2" glyph-name="two" horiz-adv-x="424" d="M283 0L295 57H44L49 78Q75 203 216 342L245 371Q258 382 274 398T312 436Q332 458 347 478T372 519Q391 559 399 599Q415 673 393 727Q369 780 289 780Q245 780 212 762Q196 754 182 742T156 716Q133
686 126 654L121 630H177L182 654Q188 683 212 706Q237 729 276 729Q320 729 335 692Q351 656 340 607Q335 584 326 562T303 518Q290 497 264 464T194 389L152 350Q116 316 89 281T41 210Q1 139 -11 78L-28 0H283Z" />
<glyph unicode="3" glyph-name="three" horiz-adv-x="424" d="M321 218Q338 297 320 348Q302 400 249 426Q290 444 316 471Q340 498 359 534Q368 552 374 571T385 611Q402 687 376 733Q350 780 281 780Q207 780 168 740Q127 698 117 650L113 631H168L172 650Q177
673 191 692Q205 712 225 720Q246 729 268 729Q305 729 322 697Q338 663 326 608Q317 566 295 528Q272 491 244 469Q215 445 174 445H138L127 391H156Q228 391 252 337Q277 283 260 205Q255 179 247 156T228 111Q207 67 180 48Q151 29 123 29Q85 29 65 49Q44 69
53 108L57 128H1L-3 109Q-15 60 10 18Q36 -23 107 -23Q189 -23 246 52Q302 127 321 218Z" />
<glyph unicode="4" glyph-name="four" horiz-adv-x="424" d="M363 245L373 293H305L404 758H347L19 307L6 245H238L185 0H242L295 245H363ZM246 292H76L318 632L246 292Z" />
<glyph unicode="5" glyph-name="five" horiz-adv-x="424" d="M329 224Q345 297 335 348Q325 398 290 427T181 456H166L218 702H414L426 758H179L103 402H147Q245 402 266 347Q285 293 269 212Q254 142 217 84Q179 27 131 27Q93 27 75 48Q58 68 64 101L69 121H12L8
102Q-4 49 27 13Q56 -23 120 -23Q201 -23 255 52Q310 130 329 224Z" />
<glyph unicode="6" glyph-name="six" horiz-adv-x="424" d="M344 217Q364 316 342 382Q318 450 257 450Q234 450 211 440Q200 435 188 429T164 411T139 386T110 352L116 380Q127 428 140 473T171 563Q188 607 206 638T243 690Q280 729 319 729Q349 729 362 710Q375
692 370 669L366 650H423L427 668Q436 711 412 746Q388 780 327 780Q237 780 166 670Q94 559 55 374Q41 308 35 254T29 154Q32 67 64 21Q96 -23 144 -23Q186 -23 226 8Q268 40 299 94Q329 149 344 217ZM286 221Q268 138 230 84Q194 30 155 30Q141 30 130 35T109
52Q99 64 94 80T87 120T87 166T94 214Q110 289 148 343Q187 397 230 397Q270 397 286 350Q302 302 286 221Z" />
<glyph unicode="7" glyph-name="seven" horiz-adv-x="424" d="M442 675L460 758H134L122 702H400L383 677Q351 629 311 569T223 434T144 301T95 201Q62 118 44 34L37 0H99L107 38Q117 86 140 152Q151 185 174 233T234 346Q269 410 302 464T366 563L425 650Q427
652 430 658T442 675Z" />
<glyph unicode="8" glyph-name="eight" horiz-adv-x="424" d="M337 205Q350 267 338 325Q324 382 283 415Q329 443 358 486Q388 530 398 583Q404 610 405 635T402 684Q393 733 364 756Q335 780 296 780Q259 780 219 756Q181 733 152 685T113 584Q101 530 112 487Q122
445 156 416Q98 381 63 325Q27 270 13 205Q7 176 6 148T9 90Q16 35 46 5Q73 -23 127 -23Q181 -23 221 5Q241 19 258 40T293 90Q308 118 319 147T337 205ZM341 587Q329 530 296 488Q263 445 225 445Q188 445 173 488Q158 530 170 587Q177 619 189 644T218 688Q252
727 285 727Q319 727 337 688Q354 649 341 587ZM280 205Q270 161 247 117Q226 74 196 52Q166 31 137 31Q108 31 89 52Q68 73 63 117Q61 139 62 160T69 205Q79 251 102 296Q114 319 128 335T156 364Q184 388 213 388Q241 388 261 364T285 296Q291 253 280 205Z"
/>
<glyph unicode="9" glyph-name="nine" horiz-adv-x="424" d="M369 384Q398 516 395 603Q393 648 384 681T359 736Q328 780 279 780Q238 780 198 749Q177 733 160 712T126 663Q95 609 80 539Q61 444 82 375Q104 307 167 307Q190 307 213 316Q237 327 260 346Q285
367 315 407L308 378Q296 330 284 285T253 195Q217 106 180 68Q142 29 106 29Q73 29 61 48Q49 68 53 89L58 109H3L-1 90Q-11 44 12 11Q37 -23 97 -23Q187 -23 258 87Q330 198 369 384ZM329 543Q312 468 275 414Q236 360 194 360Q155 360 138 407Q121 456 139 537Q147
578 161 611T194 673Q230 728 268 728Q296 728 314 705Q324 694 329 677T336 637T336 591T329 543Z" />
<glyph unicode=":" glyph-name="colon" horiz-adv-x="193" d="M173 444L195 545H113L91 444H173ZM79 0L101 102H19L-3 0H79Z" />
<glyph unicode=";" glyph-name="semicolon" horiz-adv-x="193" d="M192 444L213 545H131L110 444H192ZM102 29L117 100H37L15 0H55Q52 -14 49 -27T41 -51Q32 -74 19 -95Q7 -116 -11 -131L-20 -173Q11 -154 33 -128Q57 -99 72 -67Q80 -50 87 -27T102 29Z" />
<glyph unicode="&lt;" glyph-name="less" horiz-adv-x="424" d="M418 473L429 528L49 271L320 17L332 73L118 270L418 473Z" />
<glyph unicode="=" glyph-name="equal" horiz-adv-x="424" d="M399 332L409 380H62L52 332H399ZM363 165L373 213H26L16 165H363Z" />
<glyph unicode="&gt;" glyph-name="greater" horiz-adv-x="424" d="M376 276L103 528L92 477L306 277L7 73L-5 17L376 276Z" />
<glyph unicode="?" glyph-name="question" horiz-adv-x="362" d="M351 623Q359 665 350 700Q341 737 313 759Q287 780 250 780Q214 780 181 764Q148 747 127 718Q105 691 99 662L98 658H156L157 662Q164 697 184 714Q203 730 232 730Q268 730 286 703Q303 674
294 634Q288 608 273 585Q258 559 225 519L193 478Q169 448 141 397Q128 371 117 339T98 268L88 222H147L161 285Q169 320 178 346T197 389Q216 420 244 452L272 483Q294 508 309 528T331 566Q339 583 343 597T351 623ZM99 0L112 63H54L41 0H99Z" />
<glyph unicode="@" glyph-name="at" horiz-adv-x="633" d="M568 309Q587 402 575 480T522 602T409 646Q331 646 267 595Q201 544 152 450Q103 357 79 245Q68 190 64 139T65 40Q74 -55 120 -106Q165 -157 231 -157Q291 -157 358 -110L370 -53Q297 -114 239 -114Q190
-114 149 -70Q108 -25 104 65Q102 110 106 156T120 251Q131 300 146 345T183 432Q226 516 283 559Q339 602 398 602Q452 602 489 564Q525 528 536 455Q541 420 539 380T527 295Q509 215 479 168Q447 121 421 121Q401 121 395 144Q391 156 393 178T403 235L448 447H387Q329
447 293 423Q259 401 229 348Q200 297 189 242Q184 221 183 202T183 165Q186 132 203 110Q217 90 241 90Q264 90 289 112Q315 134 341 172Q335 123 353 102Q372 81 399 81Q431 81 466 110Q500 140 527 190Q553 240 568 309ZM359 253Q316 184 294 163Q274 144 257
144Q244 144 236 164Q228 185 239 236Q244 259 250 279T265 317Q279 351 303 378Q317 392 331 398Q346 404 371 404H391L359 253Z" />
<glyph unicode="A" glyph-name="A" horiz-adv-x="463" d="M372 0L351 758H288L-71 0H-12L90 216H298L304 0H372ZM294 273H117L285 630L294 273Z" />
<glyph unicode="B" glyph-name="B" horiz-adv-x="405" d="M332 202Q347 265 330 317Q313 368 259 389Q322 431 353 483Q385 535 397 590Q407 636 399 677T368 737Q342 758 255 758H128L-34 0H109Q188 0 227 28Q267 57 293 102Q321 148 332 202ZM336 589Q331 567
323 546T304 504T280 467T253 440T220 421T177 413H117L180 708H261Q317 708 331 673Q346 638 336 589ZM269 190Q263 161 252 137T224 92Q192 50 129 50H40L107 363H154Q215 363 240 338Q252 325 260 310T272 275Q278 236 269 190Z" />
<glyph unicode="C" glyph-name="C" horiz-adv-x="415" d="M442 623L443 626Q451 665 439 704Q428 744 398 762Q369 781 323 781Q230 781 152 680Q72 577 30 379Q-12 178 24 78Q60 -23 152 -23Q175 -23 195 -19T234 -5Q270 12 300 53Q327 92 335 131L336 136H281L280
131Q273 92 244 59Q217 27 165 27Q92 27 76 126Q61 224 94 379Q127 532 184 631T315 730Q344 730 362 718Q380 704 386 679Q392 655 386 627L385 623H442Z" />
<glyph unicode="D" glyph-name="D" horiz-adv-x="446" d="M418 382Q443 505 436 590Q428 676 393 716Q355 758 260 758H127L-35 0H107Q199 0 255 49Q311 97 352 183Q393 267 418 382ZM352 373Q330 268 296 196Q263 125 222 93Q181 60 116 60H41L179 706H252Q324
706 349 669T375 556Q375 482 352 373Z" />
<glyph unicode="E" glyph-name="E" horiz-adv-x="366" d="M254 0L266 56H40L107 369H290L301 422H118L178 702H387L399 758H127L-35 0H254Z" />
<glyph unicode="F" glyph-name="F" horiz-adv-x="352" d="M387 702L399 758H127L-35 0H28L103 351H286L297 404H114L178 702H387Z" />
<glyph unicode="G" glyph-name="G" horiz-adv-x="429" d="M317 34L386 360H222L212 313H317L264 61Q203 30 163 30Q95 30 77 125Q59 217 94 381T185 637Q242 730 312 730Q340 730 357 717Q373 706 383 682Q391 659 385 634L384 629H441L442 633Q449 668 437 707Q425
744 393 762T318 780Q256 780 200 733Q145 687 102 603Q81 561 62 503T27 370Q-1 239 8 152Q17 66 51 22Q87 -23 159 -23Q228 -23 317 34Z" />
<glyph unicode="H" glyph-name="H" horiz-adv-x="439" d="M312 0L474 758H411L336 407H115L190 758H127L-35 0H28L105 358H326L249 0H312Z" />
<glyph unicode="I" glyph-name="I" horiz-adv-x="155" d="M28 0L190 758H127L-35 0H28Z" />
<glyph unicode="J" glyph-name="J" horiz-adv-x="313" d="M238 236L349 758H288L173 218Q162 166 153 133T137 85Q124 56 104 41Q83 26 64 26Q46 26 33 35Q19 42 16 60Q13 77 17 97L18 102H-44L-45 98Q-55 53 -34 15T57 -23Q99 -23 130 -1Q159 21 185 66Q211 110
238 236Z" />
<glyph unicode="K" glyph-name="K" horiz-adv-x="422" d="M348 0L203 402L478 758H407L128 396L205 758H142L-19 0H44L128 395L269 0H348Z" />
<glyph unicode="L" glyph-name="L" horiz-adv-x="371" d="M280 0L292 56H39L189 758H126L-36 0H280Z" />
<glyph unicode="M" glyph-name="M" horiz-adv-x="501" d="M375 0L537 758H476L211 164L188 758H127L-35 0H19L116 456L141 580H142L143 455L156 88H229L385 452L446 592L416 455L319 0H375Z" />
<glyph unicode="N" glyph-name="N" horiz-adv-x="451" d="M324 0L486 758H428L313 220L302 161L294 221L188 758H126L-36 0H23L137 536L149 597L155 541L261 0H324Z" />
<glyph unicode="O" glyph-name="O" horiz-adv-x="468" d="M438 379Q479 572 444 676Q410 780 319 780Q229 780 150 676Q111 624 81 550T30 379Q-11 185 24 82Q58 -23 149 -23Q238 -23 318 82Q357 134 387 208T438 379ZM375 379Q342 222 284 125Q225 29 160 29Q95
29 77 125Q61 218 94 379Q127 539 185 633Q243 729 309 729Q375 729 392 633Q408 538 375 379Z" />
<glyph unicode="P" glyph-name="P" horiz-adv-x="371" d="M388 555Q402 619 395 663Q389 710 362 734Q336 758 261 758H127L-35 0H28L95 311H154Q245 311 305 381Q367 452 388 555ZM325 555Q309 478 270 419Q231 363 148 363H106L179 708H252Q314 708 328 666Q340
624 325 555Z" />
<glyph unicode="Q" glyph-name="Q" horiz-adv-x="468" d="M455 379Q496 572 461 676Q427 780 336 780Q246 780 167 676Q128 624 98 550T47 379Q6 185 41 82Q75 -23 166 -23Q170 -23 173 -23Q177 -23 182 -22Q151 -66 142 -109Q136 -142 150 -162Q165 -183 194
-183Q211 -183 237 -167L243 -137Q229 -147 216 -147Q196 -147 190 -135Q185 -121 188 -108Q189 -103 198 -86T217 -50T235 -17T243 -2H244Q268 11 290 32T335 82Q374 134 404 208T455 379ZM392 379Q359 222 301 125Q242 29 177 29Q112 29 94 125Q78 218 111 379Q144
539 202 633Q260 729 326 729Q392 729 409 633Q425 538 392 379Z" />
<glyph unicode="R" glyph-name="R" horiz-adv-x="386" d="M309 0L280 220Q277 244 271 271Q268 285 266 294T261 311Q255 323 242 336Q290 363 317 396T363 470Q374 490 381 511T393 556Q404 612 399 659Q393 707 371 732Q348 758 294 758H146L-16 0H48L119 334H182Q209
277 218 201L242 0H309ZM331 561Q320 514 301 474Q282 435 256 412Q230 391 192 391H131L198 708H264Q308 708 321 686T337 632Q339 600 331 561Z" />
<glyph unicode="S" glyph-name="S" horiz-adv-x="386" d="M320 192Q334 253 320 304Q313 330 295 354T247 404L222 426Q203 443 191 456T171 480Q157 500 152 531Q150 547 151 563T156 597Q162 623 172 646T198 690Q229 730 276 730Q299 730 315 722Q331 716 339
697Q344 677 340 661L339 656H402L403 660Q413 708 391 744Q367 780 292 780Q211 780 160 722Q109 663 91 580Q80 532 85 493Q90 453 107 423Q117 407 133 392T170 359L191 341Q233 305 249 271Q266 235 254 180Q239 111 202 70Q166 28 124 28Q77 28 55 52Q32 77
45 139L46 144H-14L-15 139Q-24 91 -14 52Q-3 11 27 -6Q61 -23 113 -23Q169 -23 208 4Q248 31 278 83Q308 136 320 192Z" />
<glyph unicode="T" glyph-name="T" horiz-adv-x="408" d="M474 709L484 758H96L86 709H250L99 0H161L312 709H474Z" />
<glyph unicode="U" glyph-name="U" horiz-adv-x="424" d="M366 280L468 758H411L311 289Q282 152 260 110Q237 65 209 47Q180 28 146 28Q110 28 87 47Q64 65 58 105Q53 144 77 253L184 758H122L16 257Q-11 131 -1 79Q8 28 46 2Q83 -23 135 -23Q190 -23 233 8Q275
39 307 93Q338 149 366 280Z" />
<glyph unicode="V" glyph-name="V" horiz-adv-x="463" d="M534 758H476L177 124L159 758H91L112 0H176L534 758Z" />
<glyph unicode="W" glyph-name="W" horiz-adv-x="602" d="M659 758H605L410 221L378 119H377L387 225L415 758H354L152 224L118 121H117L127 226L164 758H105L52 0H117L322 537L357 647L348 543L320 0H385L659 758Z" />
<glyph unicode="X" glyph-name="X" horiz-adv-x="388" d="M298 0L233 393L459 758H396L220 473L172 758H103L165 386L-72 0H-4L177 296L227 0H298Z" />
<glyph unicode="Y" glyph-name="Y" horiz-adv-x="388" d="M461 758H401L217 453L162 758H89L159 357L83 0H146L222 357L461 758Z" />
<glyph unicode="Z" glyph-name="Z" horiz-adv-x="366" d="M257 0L271 66H17L396 677L414 758H122L109 701H343L-37 91L-57 0H257Z" />
<glyph unicode="[" glyph-name="bracketleft" horiz-adv-x="284" d="M124 -182L135 -133H31L219 754H323L334 803H177L-33 -182H124Z" />
<glyph unicode="\" glyph-name="backslash" horiz-adv-x="342" d="M241 5L156 780H101L187 5H241Z" />
<glyph unicode="]" glyph-name="bracketright" horiz-adv-x="284" d="M106 -182L316 803H160L149 754H253L65 -133H-39L-50 -182H106Z" />
<glyph unicode="^" glyph-name="asciicircum" horiz-adv-x="424" d="M327 213L270 755L-18 213H35L235 588L274 213H327Z" />
<glyph unicode="_" glyph-name="underscore" horiz-adv-x="350" d="M360 -260L370 -212H-16L-26 -260H360Z" />
<glyph unicode="`" glyph-name="grave" horiz-adv-x="376" d="M238 666L194 788H138L193 666H238Z" />
<glyph unicode="a" glyph-name="a" horiz-adv-x="352" d="M261 0Q262 52 270 91Q277 130 285 166L331 383Q350 469 342 504Q334 535 309 555Q283 574 244 574Q205 574 172 558Q138 543 110 508Q84 476 78 446L76 439H136L138 447Q145 478 170 503T230 528Q260
528 277 502Q292 476 279 413L262 336L230 327Q121 297 71 253Q20 211 3 132Q-12 63 9 24T72 -15Q96 -15 125 0Q153 14 205 72Q199 42 199 0H261ZM240 224Q228 165 206 125Q184 83 154 58T101 33Q86 33 76 45Q63 55 60 77Q59 88 59 99T62 122Q73 171 105 205Q135
238 233 278L253 286L240 224Z" />
<glyph unicode="b" glyph-name="b" horiz-adv-x="389" d="M336 280Q355 367 351 435Q348 506 322 539Q296 574 258 574Q236 574 214 563Q203 557 193 549T171 530Q150 509 120 461L189 788H132L0 165Q-1 160 -3 152T-8 131Q-11 119 -15 103T-24 67T-32 31T-40
0H19Q22 11 25 25T33 56L43 97Q47 71 51 53T61 24Q74 3 90 -5Q107 -15 130 -15Q197 -15 254 69Q309 152 336 280ZM276 275Q250 154 210 96Q169 36 126 36Q79 36 69 104Q59 171 81 276Q89 311 98 343T119 405Q143 463 174 493Q204 523 232 523Q271 523 289 469Q306
414 276 275Z" />
<glyph unicode="c" glyph-name="c" horiz-adv-x="347" d="M351 428L355 447Q363 483 351 511Q340 541 315 557Q289 574 251 574Q175 574 117 496Q88 457 66 403T30 279Q0 143 25 63Q49 -15 125 -15Q165 -15 196 1Q228 18 251 49Q275 80 281 111L282 116H229L228
110Q222 81 200 57Q178 35 140 35Q97 35 79 92Q62 148 89 279Q103 344 120 390T158 465Q200 523 244 523Q280 523 293 500Q306 476 300 448L296 428H351Z" />
<glyph unicode="d" glyph-name="d" horiz-adv-x="383" d="M260 0L427 788H369L300 463Q296 489 291 506T281 533Q271 553 253 563Q234 574 213 574Q144 574 89 490Q33 406 6 278Q-12 192 -9 123Q-6 55 20 20Q45 -15 85 -15Q106 -15 127 -8Q147 -1 170 20Q192 40
220 92L201 0H260ZM263 281Q248 210 223 153Q199 95 169 65Q139 36 111 36Q69 36 52 89Q36 142 66 283Q92 402 132 462T216 522Q262 522 273 454Q279 420 277 377T263 281Z" />
<glyph unicode="e" glyph-name="e" horiz-adv-x="366" d="M333 283L339 312Q350 362 353 400T353 466Q345 521 320 547Q293 574 254 574Q183 574 119 489Q55 406 28 275Q1 150 27 67Q52 -15 129 -15Q168 -15 201 1Q236 18 259 49Q284 82 290 111L294 130H241L237
110Q231 83 208 58Q186 35 146 35Q92 33 77 104Q62 176 85 283H333ZM289 328H96Q124 417 163 468Q202 518 235 518Q262 518 279 496Q295 476 298 431Q302 388 292 340L289 328Z" />
<glyph unicode="f" glyph-name="f" horiz-adv-x="249" d="M312 729L323 781Q296 788 276 788Q223 788 182 741Q140 694 116 582L111 558H61L51 510H101L-8 0H50L159 510H260L270 558H170L179 602Q197 686 222 710Q246 733 274 733Q282 733 291 732T312 729Z" />
<glyph unicode="g" glyph-name="g" horiz-adv-x="388" d="M327 102L424 558H366L348 472Q335 533 313 553Q302 563 289 568T259 574Q215 574 175 540Q136 505 103 437Q86 402 74 364T53 284Q26 157 49 78Q71 0 134 0Q172 0 207 29Q241 56 272 115L256 43Q233 -64
211 -104Q188 -145 164 -163Q138 -182 107 -182Q67 -182 48 -161Q27 -141 35 -106L36 -99H-17L-18 -105Q-24 -137 -14 -165Q-2 -195 27 -211Q58 -228 100 -228Q144 -228 185 -201Q224 -175 258 -121Q291 -67 327 102ZM313 298Q301 243 284 199T247 120Q205 50 160
50Q133 50 115 78Q97 105 97 158Q97 185 100 216T111 283Q136 395 177 459Q217 522 262 522Q301 522 318 459Q334 398 313 298Z" />
<glyph unicode="h" glyph-name="h" horiz-adv-x="372" d="M246 0L322 355Q342 449 336 489Q332 530 310 552T255 574Q231 574 212 562Q191 552 168 529Q147 508 118 462L188 788H130L-38 0H20L82 289Q100 371 123 418Q147 465 174 489Q205 515 229 515Q250 515
264 496Q277 477 277 444Q275 410 259 332L188 0H246Z" />
<glyph unicode="i" glyph-name="i" horiz-adv-x="149" d="M172 707L186 771H128L114 707H172ZM22 0L141 558H83L-36 0H22Z" />
<glyph unicode="j" glyph-name="j" horiz-adv-x="176" d="M213 710L226 771H168L155 710H213ZM61 0L179 558H122L2 -8Q-18 -100 -40 -122Q-66 -146 -94 -146Q-99 -146 -105 -146Q-112 -146 -120 -144L-132 -142L-145 -201Q-132 -206 -120 -207T-97 -209Q-64 -209
-32 -185Q1 -162 23 -120Q43 -81 61 0Z" />
<glyph unicode="k" glyph-name="k" horiz-adv-x="342" d="M249 0L156 299L361 558H294L83 292L188 788H128L-39 0H21L83 292L175 0H249Z" />
<glyph unicode="l" glyph-name="l" horiz-adv-x="149" d="M20 0L188 788H130L-38 0H20Z" />
<glyph unicode="m" glyph-name="m" horiz-adv-x="569" d="M467 0L541 349Q562 448 558 488Q554 529 534 552Q515 574 485 574Q465 574 444 562Q434 557 423 549T401 529Q379 506 351 458Q350 484 347 502T339 531Q328 553 312 563Q293 574 273 574Q253 574 231
563Q208 551 189 530Q168 509 139 457L161 558H103L-16 0H43L104 286Q112 325 121 356T142 411Q154 434 167 453T195 487Q223 515 246 515Q262 515 274 500T286 458Q287 432 266 327L196 0H255L316 286Q324 327 334 359T356 414Q379 461 407 487Q435 515 459 515Q478
515 487 500Q497 484 498 458T478 327L408 0H467Z" />
<glyph unicode="n" glyph-name="n" horiz-adv-x="372" d="M269 0L344 355Q355 402 358 435T359 489Q353 531 332 552Q310 574 278 574Q255 574 234 562Q215 553 190 529Q179 518 167 502T141 462L162 558H104L-15 0H43L104 289Q113 331 124 363T146 418Q170 465
197 489Q226 515 251 515Q271 515 285 496Q300 476 299 444Q299 412 282 332L211 0H269Z" />
<glyph unicode="o" glyph-name="o" horiz-adv-x="386" d="M356 279Q387 424 355 500Q323 574 256 574Q187 574 124 500T29 279Q-2 134 30 59Q63 -15 130 -15Q198 -15 261 59Q324 131 356 279ZM298 279Q274 168 231 103Q188 36 141 36Q94 36 79 103Q72 136 74 180T88
279Q99 334 116 378T154 455Q197 522 245 522Q291 522 306 455Q321 390 298 279Z" />
<glyph unicode="p" glyph-name="p" horiz-adv-x="384" d="M375 280Q393 367 390 435Q387 504 361 539T296 574Q276 574 251 563Q240 557 230 550T208 531Q198 521 186 504T160 461L180 558H122L-42 -212H17L83 95Q89 43 101 24Q111 5 129 -5Q146 -15 168 -15Q236
-15 292 69Q348 151 375 280ZM315 275Q290 156 249 96Q209 37 165 37Q118 37 108 104Q102 138 105 181T119 276Q134 346 158 405Q169 434 183 456T212 493Q243 523 271 523Q309 523 327 469T315 275Z" />
<glyph unicode="q" glyph-name="q" horiz-adv-x="383" d="M258 -212L422 558H364L344 463Q340 489 335 506T325 533Q315 554 296 563Q277 574 257 574Q188 574 133 490Q77 406 50 278Q41 235 37 197T35 123Q38 55 64 20Q89 -15 128 -15Q151 -15 171 -5Q195 6 215
24Q225 34 237 51T263 91L198 -212H258ZM306 281Q291 209 267 153Q243 94 212 65Q182 35 155 35Q117 35 98 89Q80 142 109 282Q134 400 176 462Q216 522 259 522Q306 522 317 454Q328 384 306 281Z" />
<glyph unicode="r" glyph-name="r" horiz-adv-x="246" d="M287 502L300 563Q287 574 270 574Q250 574 228 562Q218 555 208 547T186 526Q165 503 140 460L161 558H103L-16 0H43L105 290Q130 411 172 461Q214 510 244 510Q256 510 271 506T287 502Z" />
<glyph unicode="s" glyph-name="s" horiz-adv-x="324" d="M269 165Q272 182 274 196T274 223Q273 247 261 265Q253 277 244 285Q239 289 227 295T197 315L179 327L155 342Q129 359 122 377Q114 395 120 427Q129 468 154 496Q178 523 213 523Q241 523 256 507Q264
499 265 486T264 459L319 457Q324 479 322 500T309 539Q289 574 227 574Q162 574 119 525T63 414Q53 368 62 335T104 284L140 265L156 252L182 235Q220 209 207 147Q196 102 168 69Q138 35 102 35Q61 35 49 59Q43 71 43 88T46 125L-7 126Q-12 105 -12 85T-6 49Q4
20 28 2Q53 -15 94 -15Q161 -15 206 37Q253 90 269 165Z" />
<glyph unicode="t" glyph-name="t" horiz-adv-x="282" d="M187 0L200 61Q161 47 146 47Q124 47 112 62Q100 75 100 108Q99 124 104 154T118 225L179 511H281L291 558H190L214 673H156L132 558H71L60 510H121L57 206Q47 159 43 126T41 71Q45 27 66 7Q88 -15 120
-15Q142 -15 187 0Z" />
<glyph unicode="u" glyph-name="u" horiz-adv-x="371" d="M267 0L386 558H329L267 268Q251 187 226 139Q204 95 174 68Q145 42 120 42Q91 42 76 69Q62 95 89 225L160 558H102L27 205Q-2 71 22 28T94 -15Q117 -15 136 -5Q156 5 178 27Q201 48 228 92L208 0H267Z" />
<glyph unicode="v" glyph-name="v" horiz-adv-x="359" d="M411 558H353L147 121L128 558H67L89 0H147L411 558Z" />
<glyph unicode="w" glyph-name="w" horiz-adv-x="497" d="M546 558H492L357 210L323 104H322L330 217L334 558H276L141 213L106 101H105L117 209L129 558H69L50 0H110L250 359L285 462L276 364L270 0H329L546 558Z" />
<glyph unicode="x" glyph-name="x" horiz-adv-x="337" d="M262 0L203 291L372 558H313L187 360L149 558H83L138 282L-42 0H22L151 203L191 0H262Z" />
<glyph unicode="y" glyph-name="y" horiz-adv-x="364" d="M437 558H381L183 143L156 558H93L129 19L118 -5Q99 -47 85 -73T62 -112Q44 -137 24 -148Q3 -160 -21 -160H-54L-65 -212H-22Q13 -212 40 -196Q66 -182 93 -144Q107 -126 127 -89T175 6L437 558Z" />
<glyph unicode="z" glyph-name="z" horiz-adv-x="352" d="M259 0L270 51H41L355 484L370 558H100L90 510L306 509L-12 78L-28 0H259Z" />
<glyph unicode="{" glyph-name="braceleft" horiz-adv-x="287" d="M110 -182L121 -132H114Q97 -132 89 -109Q81 -87 90 -41Q92 -34 93 -28T97 -15L105 10L125 72Q137 107 143 130T152 166Q161 207 155 248Q147 289 118 310Q138 320 153 335T182 371Q206 414 215
454Q219 477 227 549L233 612L236 638Q236 647 239 664Q249 709 268 732Q285 755 302 755H309L320 803H315Q274 803 236 762Q199 722 184 655Q179 632 176 608T171 559L168 507Q165 460 156 420Q153 403 147 389T133 361Q116 335 87 335H70L60 286H77Q108 286 112
260Q116 236 110 201Q105 180 99 159T84 114L65 62Q47 13 38 -33Q23 -101 44 -141Q65 -182 105 -182H110Z" />
<glyph unicode="|" glyph-name="bar" horiz-adv-x="157" d="M22 4L186 780H135L-29 4H22Z" />
<glyph unicode="}" glyph-name="braceright" horiz-adv-x="287" d="M217 287L227 335H210Q181 335 176 361Q172 385 178 420Q183 440 189 462T203 507L221 559Q229 584 236 607T249 654Q257 688 255 715T243 762Q222 803 182 803H178L167 754H173Q191 754 198
731Q207 708 198 664Q196 656 195 650T191 637L183 611L162 549Q150 514 144 491T135 455Q126 413 132 372Q138 330 169 310Q129 289 106 248Q82 208 73 166Q71 154 68 131T60 72L54 10L52 -15Q51 -20 51 -26T48 -41Q39 -85 20 -109Q1 -132 -16 -132H-21L-32 -182H-28Q13
-182 51 -141T104 -33Q113 12 116 62L119 114Q122 161 131 200Q134 217 140 232T154 260Q170 287 200 287H217Z" />
<glyph unicode="~" glyph-name="asciitilde" horiz-adv-x="424" d="M396 330L398 337H360L358 329Q352 299 335 271Q318 245 295 245Q271 245 245 274L215 307Q205 318 197 325T183 336T173 342T164 346Q155 350 144 350Q104 350 72 310Q40 271 28 216L27 209H64L65
217Q67 226 70 236T80 257Q91 279 104 289Q115 299 129 299Q154 299 180 269L205 240Q244 195 277 195Q308 195 346 228Q381 260 396 330Z" />
<glyph unicode="&#xa1;" glyph-name="exclamdown" horiz-adv-x="193" d="M192 482L205 545H147L134 482H192ZM57 -212L155 323H103L-24 -212H57Z" />
<glyph unicode="&#xa2;" glyph-name="cent" horiz-adv-x="424" d="M384 542V545Q390 569 382 592Q374 616 357 629Q340 643 299 651L322 759H274L250 649Q198 636 163 600Q127 562 101 508Q77 453 62 383Q46 308 47 250Q50 192 67 156Q87 119 133 106L110 0H162L184
102Q241 112 276 156Q285 166 292 180T305 207T314 228T318 237H263L261 231Q259 221 254 211T241 189Q224 166 195 157L289 601Q336 587 327 546V542H384ZM144 165Q120 183 113 211T106 283Q107 304 110 329T120 383Q132 441 150 487Q167 532 186 557Q205 581
236 597L144 165Z" />
<glyph unicode="&#xa3;" glyph-name="sterling" horiz-adv-x="424" d="M423 695L435 750Q416 771 400 776Q389 780 373 780Q339 780 310 757Q280 733 256 693Q233 652 205 567L160 437H87L77 388H144L118 312Q104 268 90 233T62 171Q49 145 30 123T-16 84L-34
0H274L285 53H35Q71 89 91 121Q100 136 111 157T133 205Q144 233 154 259T174 313L200 388H313L323 438H217L248 533Q262 575 272 604T291 651Q308 688 326 703Q343 720 364 720Q390 720 423 695Z" />
<glyph unicode="&#xa4;" glyph-name="currency" horiz-adv-x="415" d="M461 623L462 626Q470 665 458 704Q445 745 417 762Q389 781 342 781Q251 781 171 680Q117 611 79 493H38L28 444H65Q60 428 57 412T50 379Q47 365 45 352T40 326H3L-8 277H32Q24 214 27 164T44
78Q80 -23 171 -23Q217 -23 253 -5Q290 14 319 53Q347 93 355 131L356 136H301L300 131Q293 92 264 59Q237 27 185 27Q112 27 96 126Q91 158 91 195Q91 233 96 277H339L350 326H103Q105 339 107 352T113 379Q117 396 120 412T129 444H375L385 493H143Q156 532 171
567T203 631Q260 730 335 730Q366 730 382 718Q398 707 405 679Q408 667 408 654T406 627L405 623H461Z" />
<glyph unicode="&#xa5;" glyph-name="yen" horiz-adv-x="424" d="M481 758H427L233 430L170 758H105L181 343H60L51 297H171L146 181H26L17 137H137L107 0H165L195 137H313L322 182H205L230 297H348L359 349H240L481 758Z" />
<glyph unicode="&#xa6;" glyph-name="brokenbar" horiz-adv-x="157" d="M118 452L188 780H137L67 452H118ZM20 -9L90 320H39L-31 -9H20Z" />
<glyph unicode="&#xa7;" glyph-name="section" horiz-adv-x="424" d="M357 268Q369 323 353 361Q345 380 329 400T287 442L240 482Q220 499 209 516T192 550Q180 581 189 622Q200 674 230 701Q261 729 300 729Q318 729 332 726T356 713Q376 696 368 661L367 656H430L431
660Q441 708 418 745Q394 780 322 780Q247 780 195 729Q170 704 153 672T127 600Q118 562 123 527Q129 492 148 464Q135 453 124 439T101 405T82 368T70 333Q65 313 65 294T70 256Q74 236 86 219T117 183L170 134Q196 109 211 89T235 55Q242 38 243 24Q244 15 243
6T240 -12Q231 -54 200 -93Q169 -130 119 -130Q88 -130 64 -118Q40 -105 34 -81T36 -20L37 -16H-24L-25 -20Q-37 -81 -15 -131Q6 -182 107 -182Q161 -182 199 -156Q218 -143 233 -127T262 -90T284 -48T299 1Q307 38 303 66Q300 97 272 134Q342 196 357 268ZM293
249Q288 226 277 205T246 164L171 230Q151 247 142 263T129 290Q123 312 129 342Q131 352 134 362T142 385Q152 410 177 438L245 378Q266 359 277 342T292 310Q301 282 293 249Z" />
<glyph unicode="&#xa8;" glyph-name="dieresis" horiz-adv-x="376" d="M278 643L292 706H234L220 643H278ZM143 643L157 706H99L85 643H143Z" />
<glyph unicode="&#xa9;" glyph-name="copyright" horiz-adv-x="559" d="M535 378Q546 432 548 482T543 580Q529 674 481 727Q434 780 365 780Q297 780 227 727Q154 672 102 580Q47 484 25 378Q2 268 17 175Q32 80 80 29Q128 -23 195 -23Q261 -23 331 29Q400 80
456 175Q484 223 504 273T535 378ZM497 378Q476 279 428 197Q380 113 321 67Q263 23 203 21Q147 21 106 67Q67 112 53 197Q41 280 62 378Q81 472 128 557Q174 639 236 688Q297 736 355 736Q413 736 454 688Q474 664 487 632T506 557Q516 474 497 378ZM333 155L343
202Q295 175 261 175Q212 175 194 226Q174 277 197 381Q218 485 258 536Q298 584 344 584Q383 584 419 557L429 602Q391 625 344 625Q270 625 218 552Q192 515 175 474T146 384Q131 313 137 253T170 163T243 133Q294 133 333 155Z" />
<glyph unicode="&#xaa;" glyph-name="ordfeminine" horiz-adv-x="213" d="M163 451Q164 471 167 494T177 547L202 669Q208 695 209 712T208 739Q205 758 188 769Q171 781 148 781Q124 781 103 771Q83 762 67 745Q52 729 48 710V707H87V710Q91 727 105 738Q121
749 138 749Q158 749 166 733Q170 725 170 713T166 685L157 643L140 638Q106 628 82 618T43 595T18 566T3 526Q-6 484 8 463Q22 440 47 440Q64 440 83 451Q101 461 123 484Q121 478 121 469Q121 461 120 451H163ZM142 577Q130 521 107 500Q81 476 65 476Q55 476
48 487Q40 499 44 521Q50 546 68 564Q87 582 140 603L148 606L142 577Z" />
<glyph unicode="&#xab;" glyph-name="guillemotleft" horiz-adv-x="339" d="M270 76L224 271L354 469H303L173 309L157 236L216 76H270ZM135 76L89 272L218 469H168L38 309L22 235L81 76H135Z" />
<glyph unicode="&#xac;" glyph-name="logicalnot" horiz-adv-x="424" d="M364 89L408 297H61L51 249H350L316 89H364Z" />
<glyph unicode="&#xae;" glyph-name="registered" horiz-adv-x="559" d="M535 378Q546 432 548 482T543 580Q529 674 481 727Q434 780 365 780Q297 780 227 727Q154 672 102 580Q47 484 25 378Q2 268 17 175Q32 80 80 29Q128 -23 195 -23Q261 -23 331 29Q400 80
456 175Q484 223 504 273T535 378ZM497 378Q476 279 428 197Q380 113 321 67Q263 23 203 21Q147 21 106 67Q67 112 53 197Q41 280 62 378Q81 472 128 557Q174 639 236 688Q297 736 355 736Q413 736 454 688Q474 664 487 632T506 557Q516 474 497 378ZM348 145L331
281Q325 334 311 351Q345 370 368 408Q380 427 387 446T400 486Q404 503 404 519T403 551Q399 580 382 597Q374 605 362 609T331 614H232L132 143H182L226 348H263Q270 348 276 294L280 260L293 145H348ZM350 488Q342 450 323 419Q303 388 269 388H235L274 573H311Q336
573 345 560Q353 548 354 529Q355 520 354 510T350 488Z" />
<glyph unicode="&#xaf;" glyph-name="overscore" horiz-adv-x="376" d="M271 640L279 679H105L97 640H271Z" />
<glyph unicode="0;" glyph-name="degree" horiz-adv-x="217" d="M191 655Q202 708 186 744Q169 780 134 780Q100 780 69 744Q36 707 26 655Q15 604 31 568Q48 531 82 531Q116 531 148 568T191 655ZM165 654Q158 619 134 589Q112 561 89 561Q64 561 55 589Q45
616 53 654Q60 691 84 721Q105 749 129 749Q152 749 162 721T165 654Z" />
<glyph unicode="1;" glyph-name="plusminus" horiz-adv-x="424" d="M398 400L409 448H259L309 683H261L211 448H62L51 400H200L150 165H198L248 400H398ZM313 0L324 48H-23L-34 0H313Z" />
<glyph unicode="2;" glyph-name="twosuperior" horiz-adv-x="255" d="M173 326L182 368H32V371Q40 406 64 442T127 516L145 533Q153 541 163 550T187 572T208 597T223 621Q230 633 234 645T241 669Q250 714 235 747Q221 780 169 780Q126 780 100 757Q73 733
69 712L67 703H110L112 712Q114 723 126 731Q138 740 159 740Q182 740 192 721Q201 701 195 676Q191 659 181 637Q176 627 165 612T134 577L110 552L86 530Q66 511 49 492T20 451Q-4 407 -10 379L-21 326H173Z" />
<glyph unicode="3;" glyph-name="threesuperior" horiz-adv-x="256" d="M203 453Q210 484 205 515Q202 541 169 571Q206 600 219 625Q225 638 230 651T238 678Q248 725 230 753Q212 780 177 780Q153 780 132 771Q108 760 94 743Q79 726 74 707L72 699H109L111
708Q114 720 126 729Q139 739 163 739Q189 739 193 719Q200 697 194 675Q192 664 187 654T177 634Q163 612 148 600Q132 587 109 587H87L77 544H95Q138 544 150 515Q163 485 156 447Q148 412 130 384Q112 354 79 354Q53 354 45 365Q40 378 42 385L44 396H5L3 387Q-4
355 14 334T68 313Q121 313 157 356Q191 399 203 453Z" />
<glyph unicode="4;" glyph-name="acute" horiz-adv-x="376" d="M267 788H212L109 660H154L267 788Z" />
<glyph unicode="5;" glyph-name="mu" horiz-adv-x="376" d="M440 558H385L292 282Q277 237 263 204T233 146Q204 98 172 72Q141 46 113 46Q89 46 79 70Q68 93 79 146Q83 163 89 188T108 247L213 558H156L-94 -182H-35L32 13Q47 -15 82 -15Q108 -15 142 8Q159
19 179 39T223 89L192 0H252L440 558Z" />
<glyph unicode="6;" glyph-name="paragraph" horiz-adv-x="424" d="M498 709L509 758H321Q249 758 205 733Q163 708 131 657Q101 606 89 552Q72 470 105 413Q137 355 207 355L93 -182H143L332 709H399L210 -182H258L447 709H498Z" />
<glyph unicode="7;" glyph-name="middot" horiz-adv-x="424" d="M242 222L264 323H182L160 222H242Z" />
<glyph unicode="8;" glyph-name="cedilla" horiz-adv-x="376" d="M234 -144Q239 -120 233 -100T197 -69L227 -16H194L151 -92Q204 -103 195 -143Q192 -157 180 -169Q170 -182 159 -182Q140 -182 125 -167L118 -198Q136 -212 164 -212Q193 -212 211 -191Q227
-172 234 -144Z" />
<glyph unicode="9;" glyph-name="onesuperior" horiz-adv-x="256" d="M111 342L201 769H162L87 721L78 678L145 713L67 342H111Z" />
<glyph unicode="a;" glyph-name="ordmasculine" horiz-adv-x="236" d="M218 611Q236 695 215 738Q195 780 154 780Q112 780 75 738Q36 694 18 611Q0 526 21 484T82 442Q123 442 161 484Q200 526 218 611ZM179 611Q167 555 142 515Q118 479 90 479Q61 479 54
515Q46 550 58 611Q65 641 74 665T95 708Q119 745 146 745Q174 745 183 708Q187 690 187 666T179 611Z" />
<glyph unicode="b;" glyph-name="guillemotright" horiz-adv-x="340" d="M300 231L318 313L260 469H206L251 274L121 76H174L300 231ZM164 231L182 313L125 469H71L116 274L-14 77H40L164 231Z" />
<glyph unicode="c;" glyph-name="onequarter" horiz-adv-x="576" d="M559 765H504L-21 -19H42L559 765ZM487 128L495 167H454L509 426H461L271 173L262 128H403L376 -1H419L446 128H487ZM128 313L222 754H183L108 706L99 663L166 698L84 313H128ZM410 170H322L445
336L410 170Z" />
<glyph unicode="d;" glyph-name="onehalf" horiz-adv-x="576" d="M467 0L475 42H324L325 46Q333 83 356 122T421 200L440 217Q448 225 458 234T481 255Q505 279 517 303Q530 327 534 350Q543 392 528 424Q513 457 462 457Q420 457 392 432Q367 409 361 384L359
375H402L404 385Q407 396 418 404Q431 413 451 413Q475 413 483 395Q494 376 488 352Q485 336 474 315Q464 296 429 259L404 235L380 212Q359 192 342 172T313 130Q301 107 293 89T282 55L271 0H467ZM549 780H495L-30 -4H32L549 780ZM118 328L212 769H173L98 721L89
678L156 713L74 328H118Z" />
<glyph unicode="e;" glyph-name="threequarters" horiz-adv-x="576" d="M226 453Q234 486 229 515Q225 543 192 571Q229 599 243 625Q255 650 261 678Q271 725 254 753Q236 780 201 780Q175 780 154 770Q134 761 117 743Q102 726 97 707L95 699H132L134 708Q137
719 150 729Q161 739 186 739Q212 739 216 719Q222 699 216 675Q211 652 200 634Q189 615 171 600Q157 587 132 587H110L100 544H118Q162 544 174 515Q187 487 179 447Q171 412 153 384Q135 354 103 354Q77 354 69 365Q62 377 65 385L67 396H28L26 387Q18 354 38
333Q56 312 91 312Q144 312 179 355Q213 397 226 453ZM573 765H519L-11 -25H51L573 765ZM500 128L508 167H467L522 426H473L285 173L275 128H415L388 -1H432L459 128H500ZM423 170H335L458 336L423 170Z" />
<glyph unicode="f;" glyph-name="questiondown" horiz-adv-x="362" d="M308 482L321 545H263L250 482H308ZM264 -115V-111H208L207 -116Q200 -151 179 -169Q159 -186 131 -186Q97 -186 78 -158Q60 -129 69 -89Q72 -77 77 -65T90 -40T109 -11T137 26L169 67Q182
83 194 103T220 148Q233 174 244 206T263 278L273 324H216L203 262Q188 192 166 157Q156 140 144 125T118 95L90 64Q67 39 53 18T31 -20Q17 -52 12 -77Q2 -120 11 -154Q22 -193 48 -213Q76 -235 111 -235Q129 -235 146 -231T180 -218Q213 -202 235 -172Q258 -143
264 -115Z" />
<glyph unicode="0;" glyph-name="Agrave" horiz-adv-x="463" d="M358 854L293 938H201L288 854H358ZM353 0L332 758H269L-90 0H-31L71 216H279L285 0H353ZM275 273H98L266 630L275 273Z" />
<glyph unicode="1;" glyph-name="Aacute" horiz-adv-x="463" d="M374 938H285L184 854H251L374 938ZM353 0L332 758H269L-90 0H-31L71 216H279L285 0H353ZM275 273H98L266 630L275 273Z" />
<glyph unicode="2;" glyph-name="Acircumflex" horiz-adv-x="463" d="M358 853L305 928H265L180 854H225L275 884L313 853H358ZM354 0L333 758H270L-89 0H-30L72 216H280L286 0H354ZM276 273H99L267 630L276 273Z" />
<glyph unicode="3;" glyph-name="Atilde" horiz-adv-x="463" d="M392 924H356Q348 905 339 898Q333 893 323 893Q315 893 299 902L273 917Q254 928 238 928Q222 928 209 921Q195 913 182 897Q167 879 160 856H195Q203 879 213 885Q224 892 230 892Q235 892
239 890T252 883L258 879L276 867Q287 859 296 856T311 852Q333 852 355 868T392 924ZM354 0L333 758H270L-89 0H-30L72 216H280L286 0H354ZM276 273H99L267 630L276 273Z" />
<glyph unicode="4;" glyph-name="Adieresis" horiz-adv-x="463" d="M417 854L430 918H371L358 854H417ZM282 854L295 918H237L224 854H282ZM355 0L334 758H271L-88 0H-29L73 216H281L287 0H355ZM277 273H100L268 630L277 273Z" />
<glyph unicode="5;" glyph-name="Aring" horiz-adv-x="463" d="M357 0L334 756Q351 773 359 789Q370 807 374 829Q382 865 370 890Q358 916 335 916Q311 916 290 890Q267 863 260 829Q255 805 258 789Q260 780 262 772T271 757L-88 0H-29L74 216H282L287 0H357ZM347
836Q345 826 341 818T332 802Q320 788 309 788Q297 788 291 802Q287 816 290 836Q295 856 306 870Q316 885 330 885Q341 885 347 870Q352 856 347 836ZM278 273H101L269 630L278 273Z" />
<glyph unicode="6;" glyph-name="AE" horiz-adv-x="631" d="M519 0L531 56H304L372 374H556L566 422H382L442 702H652L664 758H392L-81 0H-16L119 215H276L230 0H519ZM287 273H154L356 595L287 273Z" />
<glyph unicode="7;" glyph-name="Ccedilla" horiz-adv-x="415" d="M461 623L462 626Q466 646 466 665T459 704Q449 741 417 762Q387 781 344 781Q277 781 221 732Q165 684 122 599Q79 513 48 365Q22 242 25 170Q26 134 34 102T57 43Q85 -11 142 -22L103 -91Q159
-101 150 -143Q147 -156 136 -169Q123 -182 113 -182Q93 -182 80 -167L73 -198Q91 -212 119 -212Q147 -212 167 -191Q183 -172 190 -144Q195 -121 189 -101T153 -70L179 -22Q206 -20 227 -14T266 2Q299 21 323 59Q348 98 355 131L356 135H301L300 130Q293 92 264
59Q237 27 185 27Q111 27 96 126Q81 224 114 379Q147 532 204 631T335 730Q364 730 382 718T406 680Q412 655 406 627L405 623H461Z" />
<glyph unicode="8;" glyph-name="Egrave" horiz-adv-x="366" d="M317 854L253 938H160L247 854H317ZM235 0L247 56H21L88 369H271L282 422H99L159 702H368L379 758H107L-54 0H235Z" />
<glyph unicode="9;" glyph-name="Eacute" horiz-adv-x="366" d="M314 938H225L124 854H191L314 938ZM235 0L247 56H21L88 369H271L282 422H99L159 702H368L379 758H107L-54 0H235Z" />
<glyph unicode="a;" glyph-name="Ecircumflex" horiz-adv-x="366" d="M317 853L264 928H224L138 854H184L233 884L271 853H317ZM236 0L248 56H22L89 369H272L283 422H100L160 702H369L380 758H108L-53 0H236Z" />
<glyph unicode="b;" glyph-name="Edieresis" horiz-adv-x="366" d="M368 854L382 918H324L310 854H368ZM233 854L247 918H189L175 854H233ZM237 0L249 56H23L90 369H273L284 422H101L161 702H370L382 758H110L-52 0H237Z" />
<glyph unicode="c;" glyph-name="Igrave" horiz-adv-x="154" d="M204 854L140 938H47L134 854H204ZM9 0L170 758H107L-54 0H9Z" />
<glyph unicode="d;" glyph-name="Iacute" horiz-adv-x="154" d="M201 938H111L11 854H78L201 938ZM9 0L170 758H107L-54 0H9Z" />
<glyph unicode="e;" glyph-name="Icircumflex" horiz-adv-x="154" d="M204 853L150 928H110L25 854H70L120 884L158 853H204ZM10 0L171 758H108L-53 0H10Z" />
<glyph unicode="f;" glyph-name="Idieresis" horiz-adv-x="154" d="M255 854L269 918H211L197 854H255ZM120 854L134 918H76L62 854H120ZM11 0L173 758H110L-52 0H11Z" />
<glyph unicode="&#xd0;" glyph-name="Eth" horiz-adv-x="445" d="M417 382Q430 444 435 495T436 590Q428 674 393 716Q357 758 259 758H126L52 411H-5L-16 362H41L-36 0H106Q199 0 254 49Q310 97 351 183Q392 267 417 382ZM352 373Q329 266 295 196Q262 125 221
92T114 59H40L104 362H191L202 412H116L179 706H252Q321 706 348 669Q372 634 374 556Q374 477 352 373Z" />
<glyph unicode="&#xd1;" glyph-name="Ntilde" horiz-adv-x="451" d="M387 924H350Q342 905 333 898Q327 893 317 893Q309 893 293 902L267 917Q248 928 232 928Q216 928 203 921Q197 917 190 911T176 897Q161 879 154 856H189Q197 879 207 885Q218 892 224 892Q229
892 233 890T246 883L252 879L270 867Q281 859 290 856T306 852Q327 852 349 868Q370 883 387 924ZM306 0L467 758H409L295 220L284 161L276 221L169 758H107L-54 0H5L119 536L131 597L137 541L243 0H306Z" />
<glyph unicode="&#xd2;" glyph-name="Ograve" horiz-adv-x="468" d="M362 854L298 938H205L292 854H362ZM421 379Q463 572 427 676Q393 780 303 780Q213 780 133 676Q55 573 13 379Q-28 185 7 82Q43 -23 132 -23Q221 -23 301 82Q380 185 421 379ZM358 379Q325
218 267 125Q210 29 143 29Q78 29 60 125Q44 218 77 379Q112 539 168 633Q226 729 292 729Q358 729 375 633Q393 538 358 379Z" />
<glyph unicode="&#xd3;" glyph-name="Oacute" horiz-adv-x="468" d="M359 938H270L169 854H236L359 938ZM421 379Q463 572 427 676Q393 780 303 780Q213 780 133 676Q55 573 13 379Q-28 185 7 82Q43 -23 132 -23Q221 -23 301 82Q380 185 421 379ZM358 379Q325
218 267 125Q210 29 143 29Q78 29 60 125Q44 218 77 379Q112 539 168 633Q226 729 292 729Q358 729 375 633Q393 538 358 379Z" />
<glyph unicode="&#xd4;" glyph-name="Ocircumflex" horiz-adv-x="468" d="M362 853L309 928H269L184 854H229L280 884L317 853H362ZM422 379Q464 571 429 676Q393 780 304 780Q214 780 135 676Q95 624 65 550T14 379Q-27 185 8 82Q44 -23 133 -23Q222 -23 302
82Q381 185 422 379ZM359 379Q326 218 268 125Q211 29 144 29Q79 29 61 125Q45 218 78 379Q113 539 169 633Q227 729 293 729Q359 729 376 633Q394 538 359 379Z" />
<glyph unicode="&#xd5;" glyph-name="Otilde" horiz-adv-x="468" d="M397 924H360Q352 905 345 898Q339 893 328 893Q324 893 318 895T304 902L278 917Q259 928 242 928Q226 928 215 921Q200 913 186 897Q172 878 165 856H201Q207 878 218 885Q228 892 234 892Q243
892 257 883L263 879L280 867Q302 852 317 852Q338 852 360 868Q384 885 397 924ZM422 379Q464 571 429 676Q393 780 304 780Q214 780 135 676Q95 624 65 550T14 379Q-27 185 8 82Q44 -23 133 -23Q222 -23 302 82Q381 185 422 379ZM359 379Q326 218 268 125Q211
29 144 29Q79 29 61 125Q45 218 78 379Q113 539 169 633Q227 729 293 729Q359 729 376 633Q394 538 359 379Z" />
<glyph unicode="&#xd6;" glyph-name="Odieresis" horiz-adv-x="468" d="M413 854L427 918H369L355 854H413ZM278 854L292 918H234L220 854H278ZM423 379Q465 571 430 676Q394 780 305 780Q215 780 136 676Q96 624 66 550T15 379Q-26 185 9 82Q45 -23 134 -23Q223
-23 303 82Q382 185 423 379ZM360 379Q327 218 269 125Q212 29 145 29Q80 29 62 125Q46 218 79 379Q114 539 170 633Q228 729 294 729Q360 729 377 633Q395 538 360 379Z" />
<glyph unicode="&#xd7;" glyph-name="multiply" horiz-adv-x="424" d="M423 486L397 533L215 316L126 525L90 484L182 263L-2 47L10 12L198 230L288 11L326 54L237 262L423 486Z" />
<glyph unicode="&#xd8;" glyph-name="Oslash" horiz-adv-x="468" d="M439 378Q457 460 460 531Q464 600 448 666L522 780H464L422 715Q383 780 319 780Q227 780 149 674Q71 570 31 388Q23 350 18 313T8 239Q2 164 18 97L-48 -8H13L44 40Q80 -23 151 -23Q211 -23
267 24Q322 72 366 156Q388 199 406 254T439 378ZM389 666L76 187Q74 220 74 248T79 302Q82 328 86 351T95 396Q126 545 185 637T309 729Q326 729 346 719Q368 710 389 666ZM372 372Q339 216 282 123T157 30Q105 30 84 106L391 576Q394 532 389 482T372 372Z" />
<glyph unicode="&#xd9;" glyph-name="Ugrave" horiz-adv-x="424" d="M341 854L276 938H184L271 854H341ZM347 280L449 758H392L292 289Q278 220 265 176T241 110Q218 65 190 47Q161 28 127 28Q91 28 68 47Q45 65 39 105Q33 140 58 253L165 758H103L-4 257Q-30
130 -20 79Q-11 28 27 2Q64 -23 116 -23Q172 -23 213 8Q256 38 288 93Q319 149 347 280Z" />
<glyph unicode="&#xda;" glyph-name="Uacute" horiz-adv-x="424" d="M321 938H232L131 854H198L321 938ZM347 280L449 758H392L292 289Q278 220 265 176T241 110Q218 65 190 47Q161 28 127 28Q91 28 68 47Q45 65 39 105Q33 140 58 253L165 758H103L-4 257Q-30
130 -20 79Q-11 28 27 2Q64 -23 116 -23Q172 -23 213 8Q256 38 288 93Q319 149 347 280Z" />
<glyph unicode="&#xdb;" glyph-name="Ucircumflex" horiz-adv-x="424" d="M341 853L288 928H247L162 854H208L258 884L295 853H341ZM348 280L450 758H393L293 289Q279 220 266 176T242 110Q219 65 191 47Q162 28 128 28Q92 28 69 47Q46 65 40 105Q34 140 59 253L166
758H104L-3 257Q-29 130 -19 79Q-10 28 28 2Q65 -23 117 -23Q172 -23 215 8Q257 39 289 93Q320 149 348 280Z" />
<glyph unicode="&#xdc;" glyph-name="Udieresis" horiz-adv-x="424" d="M392 854L406 918H348L334 854H392ZM257 854L271 918H213L199 854H257ZM349 280L451 758H394L294 289Q265 152 243 110Q220 65 192 47Q163 28 129 28Q93 28 70 47Q47 65 41 105Q36 144 60
253L167 758H105L-1 257Q-28 131 -18 79Q-9 28 29 2Q66 -23 118 -23Q173 -23 216 8Q258 39 290 93Q321 149 349 280Z" />
<glyph unicode="&#xdd;" glyph-name="Yacute" horiz-adv-x="388" d="M349 938H259L159 854H226L349 938ZM441 758H381L198 453L142 758H69L140 357L64 0H127L203 357L441 758Z" />
<glyph unicode="&#xde;" glyph-name="Thorn" horiz-adv-x="371" d="M358 411Q370 471 364 516Q358 560 332 585Q306 608 229 608H158L190 758H127L-35 0H29L66 173H125Q216 173 276 242Q337 313 358 411ZM295 411Q279 337 240 281Q202 227 120 227H78L148 558H220Q283
558 295 517Q308 477 295 411Z" />
<glyph unicode="&#xdf;" glyph-name="germandbls" horiz-adv-x="376" d="M303 139Q312 179 307 216T280 288L262 316L250 338L240 354Q212 402 218 431Q221 442 230 458T256 497L277 521Q290 537 301 552T321 584Q339 616 348 654Q362 720 334 754Q307 788 258
788Q216 788 185 764Q153 741 127 693Q102 649 84 561L-35 0H24L149 589Q168 680 194 709Q219 737 247 737Q271 737 283 717Q296 696 290 670Q286 652 275 630T242 579L218 547Q217 545 214 541T206 530Q167 481 158 438Q153 415 156 387Q158 375 166 358T188 317Q190
313 192 309T197 299L210 274Q241 214 245 185T243 121Q234 80 213 59Q194 37 174 37Q167 37 142 42Q119 46 94 65L82 8Q111 -15 157 -15Q213 -15 251 29Q290 74 303 139Z" />
<glyph unicode="&#xe0;" glyph-name="agrave" horiz-adv-x="352" d="M311 666L267 788H211L266 666H311ZM238 0Q239 52 247 91Q254 130 262 166L308 383Q327 469 319 504Q311 535 286 555Q260 574 221 574Q183 574 148 558Q115 542 87 508Q61 476 55 446L53 439H113L115
447Q118 463 126 477T147 503Q172 528 207 528Q237 528 254 502Q269 476 256 413L239 336L206 327Q98 297 48 253Q-3 211 -20 132Q-35 63 -14 24T49 -15Q73 -15 102 0Q130 14 182 72Q176 42 176 0H238ZM216 224Q204 165 182 125Q159 82 131 58Q101 33 78 33Q64
33 52 45Q40 55 37 77Q36 88 36 99Q36 110 39 122Q50 171 81 205Q113 239 210 278L230 286L216 224Z" />
<glyph unicode="&#xe1;" glyph-name="aacute" horiz-adv-x="352" d="M349 788H294L192 660H237L349 788ZM238 0Q239 52 247 91Q254 130 262 166L308 383Q327 469 319 504Q311 535 286 555Q260 574 221 574Q183 574 148 558Q115 542 87 508Q61 476 55 446L53 439H113L115
447Q118 463 126 477T147 503Q172 528 207 528Q237 528 254 502Q269 476 256 413L239 336L206 327Q98 297 48 253Q-3 211 -20 132Q-35 63 -14 24T49 -15Q73 -15 102 0Q130 14 182 72Q176 42 176 0H238ZM216 224Q204 165 182 125Q159 82 131 58Q101 33 78 33Q64
33 52 45Q40 55 37 77Q36 88 36 99Q36 110 39 122Q50 171 81 205Q113 239 210 278L230 286L216 224Z" />
<glyph unicode="&#xe2;" glyph-name="acircumflex" horiz-adv-x="352" d="M318 659L286 788H248L161 658H213L250 708L265 659H318ZM238 0Q239 52 247 91Q254 130 262 166L308 383Q327 469 319 504Q311 535 286 555Q260 574 221 574Q183 574 148 558Q115 542 87
508Q61 476 55 446L53 439H113L115 447Q118 463 126 477T147 503Q172 528 207 528Q237 528 254 502Q269 476 256 413L239 336L206 327Q98 297 48 253Q-3 211 -20 132Q-35 63 -14 24T49 -15Q73 -15 102 0Q130 14 182 72Q176 42 176 0H238ZM216 224Q204 165 182 125Q159
82 131 58Q101 33 78 33Q64 33 52 45Q40 55 37 77Q36 88 36 99Q36 110 39 122Q50 171 81 205Q113 239 210 278L230 286L216 224Z" />
<glyph unicode="&#xe3;" glyph-name="atilde" horiz-adv-x="352" d="M359 754H321Q309 698 291 698Q281 698 259 718L249 732Q234 754 215 754Q190 754 169 727Q147 699 135 642H173Q183 690 205 690Q214 690 228 677L239 663Q257 640 276 640Q293 640 309 653Q327
668 337 688Q342 698 347 714T359 754ZM241 0Q243 26 245 48T251 91Q258 130 266 166L312 383Q330 472 323 504Q315 536 289 555T224 574Q185 574 152 558Q117 541 90 508Q66 476 58 446L57 439H117L118 447Q125 478 150 503T211 528Q242 528 257 502Q273 478 259
413L243 336L210 327Q103 297 51 253Q1 210 -16 132Q-31 63 -10 24T52 -15Q76 -15 105 0Q134 14 186 72Q183 57 181 39T179 0H241ZM220 224Q208 165 186 125Q163 82 135 58Q105 33 81 33Q66 33 56 45Q42 57 41 77Q38 100 42 122Q52 169 85 205Q118 240 214 278L233
286L220 224Z" />
<glyph unicode="&#xe4;" glyph-name="adieresis" horiz-adv-x="352" d="M337 643L351 706H293L279 643H337ZM202 643L216 706H158L144 643H202ZM247 0Q248 52 256 91Q263 130 271 166L317 383Q336 469 328 504Q320 535 295 555Q267 574 230 574Q192 574 157 558Q122
541 96 508Q71 477 63 446L62 439H122L124 447Q130 478 155 503T216 528Q247 528 262 502Q278 478 264 413L248 336L215 327Q108 297 56 253Q6 210 -11 132Q-26 63 -5 24T57 -15Q81 -15 111 0Q139 14 191 72Q185 42 185 0H247ZM225 224Q213 165 191 125Q168 82
140 58Q110 33 87 33Q71 33 61 45Q47 57 46 77Q43 100 47 122Q57 169 90 205Q123 240 219 278L238 286L225 224Z" />
<glyph unicode="&#xe5;" glyph-name="aring" horiz-adv-x="352" d="M302 724Q310 760 299 785Q288 811 265 811Q242 811 219 785Q198 759 190 724T194 664Q205 638 228 638Q251 638 274 664Q294 689 302 724ZM235 0Q237 26 239 48T245 91Q252 130 260 166L306
383Q324 472 317 504Q309 536 283 555T218 574Q179 574 146 558Q111 541 84 508Q58 474 52 446L51 439H111L112 447Q119 478 144 503T205 528Q236 528 251 502T253 413L237 336L204 327Q97 297 45 253Q-5 211 -23 132Q-37 62 -16 24Q5 -15 46 -15Q70 -15 99 0Q129
15 180 72Q173 44 173 0H235ZM275 723Q271 702 259 685T234 668Q222 668 217 685Q212 700 217 723Q219 734 223 744T233 762Q245 778 258 778Q271 778 275 762Q279 745 275 723ZM214 224Q202 165 180 125Q157 82 129 58Q99 33 75 33Q60 33 50 45Q37 55 35 77Q32
100 36 122Q46 169 79 205Q112 239 207 278L227 286L214 224Z" />
<glyph unicode="&#xe6;" glyph-name="ae" horiz-adv-x="590" d="M556 281L562 310Q592 449 565 511Q538 574 479 574Q455 574 428 563Q403 552 384 533Q364 514 341 475Q332 536 304 555Q274 574 243 574Q205 574 171 556Q134 538 109 507Q83 475 77 445L76 439H136L138
447Q144 479 170 503Q194 528 233 528Q265 528 282 495Q297 462 276 366L270 338L231 326Q138 298 96 270Q75 256 60 242T34 210Q13 177 4 132Q-10 65 9 26Q29 -15 77 -15Q118 -15 161 14Q203 44 249 115Q255 36 287 10Q316 -15 355 -15Q392 -15 425 1Q459 17 485
49T517 110L518 115H462L461 109Q459 98 452 87T434 62Q411 35 371 35Q318 35 303 105Q288 174 306 259L310 281H556ZM513 329H322Q344 411 385 466Q424 519 460 519Q484 519 501 497Q519 476 522 429Q524 406 522 385T515 343L513 329ZM254 258Q248 226 239 198T217
142Q193 89 162 61T107 33Q83 33 70 54Q56 75 65 121Q73 153 87 177Q95 190 105 201T130 223T170 245T236 276L261 287L254 258Z" />
<glyph unicode="&#xe7;" glyph-name="ccedilla" horiz-adv-x="347" d="M375 443L376 447Q382 478 372 509Q360 541 337 557Q311 574 272 574Q197 574 140 497Q111 459 89 403T50 271Q36 205 34 156T42 71Q61 3 125 -14L81 -91Q137 -101 128 -143Q125 -156 114
-169Q101 -182 91 -182Q72 -182 57 -167L50 -198Q68 -212 96 -212Q126 -212 144 -190Q163 -168 167 -142Q173 -119 167 -98Q161 -76 129 -67L160 -14Q196 -11 226 6Q255 24 276 52Q297 82 303 111L304 116H250L249 110Q243 81 220 58Q198 36 161 36Q118 36 100
93Q83 148 110 279Q137 408 179 465Q222 523 265 523Q300 523 314 500Q327 478 321 448L320 443H375Z" />
<glyph unicode="&#xe8;" glyph-name="egrave" horiz-adv-x="366" d="M320 666L275 788H220L274 666H320ZM314 283L320 312Q341 411 335 466Q329 519 301 547Q287 560 272 567T236 574Q165 574 101 489Q39 406 10 275Q-17 151 8 67Q32 -15 111 -15Q151 -15 183
1T241 49Q266 80 272 111L276 130H222L218 110Q212 81 189 58Q167 35 128 35Q74 33 59 104Q42 175 66 283H314ZM271 328H78Q105 416 144 468Q183 518 216 518Q243 518 260 496T280 431Q282 409 280 387T273 340L271 328Z" />
<glyph unicode="&#xe9;" glyph-name="eacute" horiz-adv-x="366" d="M357 788H302L201 660H246L357 788ZM314 283L320 312Q341 411 335 466Q329 519 301 547Q287 560 272 567T236 574Q165 574 101 489Q39 406 10 275Q-17 151 8 67Q32 -15 111 -15Q151 -15 183
1T241 49Q266 80 272 111L276 130H222L218 110Q212 81 189 58Q167 35 128 35Q74 33 59 104Q42 175 66 283H314ZM271 328H78Q105 416 144 468Q183 518 216 518Q243 518 260 496T280 431Q282 409 280 387T273 340L271 328Z" />
<glyph unicode="&#xea;" glyph-name="ecircumflex" horiz-adv-x="366" d="M322 659L290 788H252L165 658H217L254 708L269 659H322ZM314 283L320 312Q341 411 335 466Q329 519 301 547Q287 560 272 567T236 574Q165 574 101 489Q39 406 10 275Q-17 151 8 67Q32
-15 111 -15Q151 -15 183 1T241 49Q266 80 272 111L276 130H222L218 110Q212 81 189 58Q167 35 128 35Q74 33 59 104Q42 175 66 283H314ZM271 328H78Q105 416 144 468Q183 518 216 518Q243 518 260 496T280 431Q282 409 280 387T273 340L271 328Z" />
<glyph unicode="&#xeb;" glyph-name="edieresis" horiz-adv-x="366" d="M346 643L360 706H302L288 643H346ZM211 643L225 706H167L153 643H211ZM323 283L329 312Q350 411 344 466Q337 520 310 547Q296 560 281 567T245 574Q172 574 110 489Q46 404 19 275Q-8 148
17 67Q41 -15 119 -15Q159 -15 192 1Q224 17 250 49Q275 80 281 111L285 130H231L227 110Q221 83 198 58Q175 35 137 35Q83 33 68 104Q51 175 75 283H323ZM279 328H86Q114 417 153 468Q192 518 225 518Q252 518 269 496T289 431Q292 386 282 340L279 328Z" />
<glyph unicode="&#xec;" glyph-name="igrave" horiz-adv-x="149" d="M208 666L164 788H108L163 666H208ZM20 0L139 558H81L-38 0H20Z" />
<glyph unicode="&#xed;" glyph-name="iacute" horiz-adv-x="149" d="M236 788H181L79 660H124L236 788ZM20 0L139 558H81L-38 0H20Z" />
<glyph unicode="&#xee;" glyph-name="icircumflex" horiz-adv-x="149" d="M210 659L179 788H141L53 658H105L143 708L157 659H210ZM20 0L139 558H81L-38 0H20Z" />
<glyph unicode="&#xef;" glyph-name="idieresis" horiz-adv-x="149" d="M234 643L247 706H189L176 643H234ZM99 643L112 706H54L41 643H99ZM29 0L148 558H90L-29 0H29Z" />
<glyph unicode="&#xf0;" glyph-name="eth" horiz-adv-x="378" d="M326 302Q334 341 339 380T346 459Q349 540 337 601Q330 633 318 663T288 724L361 805L348 842L266 752Q239 776 210 782T144 788H133L121 734H130Q182 734 226 709L131 607L146 565L239 666Q266
618 275 574Q285 528 286 479Q259 509 242 515Q222 521 206 521Q165 521 120 488T42 396Q25 366 13 332T-8 256Q-34 137 -5 61Q23 -15 96 -15Q173 -15 235 71Q266 114 288 172T326 302ZM258 251Q239 159 197 97Q155 37 109 37Q62 37 47 97Q31 157 50 251Q71 345
112 405Q154 465 200 465Q247 465 262 405Q279 343 258 251Z" />
<glyph unicode="&#xf1;" glyph-name="ntilde" horiz-adv-x="371" d="M368 754H330Q318 698 300 698Q291 698 268 718L258 732Q243 754 224 754Q199 754 178 727Q156 699 144 642H182Q192 690 215 690Q224 690 238 677L249 663Q267 640 286 640Q303 640 319 653T346
688Q351 698 357 714T368 754ZM250 0L325 355Q336 402 339 435T340 489Q334 531 313 552Q291 574 259 574Q236 574 215 562Q193 551 171 529T122 462L142 558H84L-34 0H24L85 289Q103 373 127 418Q149 463 178 489T232 515Q252 515 266 496Q280 478 280 444Q280
427 275 399T262 332L192 0H250Z" />
<glyph unicode="&#xf2;" glyph-name="ograve" horiz-adv-x="386" d="M326 666L282 788H226L281 666H326ZM333 279Q365 426 332 500Q300 574 233 574Q164 574 101 500T6 279Q-24 132 7 59Q40 -15 108 -15Q175 -15 238 59Q303 133 333 279ZM275 279Q252 169 209
103Q166 36 118 36Q70 36 57 103Q42 168 65 279Q89 390 132 455Q174 522 222 522Q268 522 284 455Q299 389 275 279Z" />
<glyph unicode="&#xf3;" glyph-name="oacute" horiz-adv-x="386" d="M364 788H309L207 660H252L364 788ZM333 279Q365 426 332 500Q300 574 233 574Q164 574 101 500T6 279Q-24 132 7 59Q40 -15 108 -15Q175 -15 238 59Q303 133 333 279ZM275 279Q252 169 209
103Q166 36 118 36Q70 36 57 103Q42 168 65 279Q89 390 132 455Q174 522 222 522Q268 522 284 455Q299 389 275 279Z" />
<glyph unicode="&#xf4;" glyph-name="ocircumflex" horiz-adv-x="386" d="M329 659L297 788H259L172 658H224L261 708L276 659H329ZM333 279Q365 426 332 500Q300 574 233 574Q164 574 101 500T6 279Q-24 132 7 59Q40 -15 108 -15Q175 -15 238 59Q303 133 333
279ZM275 279Q252 169 209 103Q166 36 118 36Q70 36 57 103Q42 168 65 279Q89 390 132 455Q174 522 222 522Q268 522 284 455Q299 389 275 279Z" />
<glyph unicode="&#xf5;" glyph-name="otilde" horiz-adv-x="386" d="M374 754H336Q324 698 306 698Q296 698 274 718L264 732Q249 754 230 754Q205 754 184 727Q162 699 150 642H188Q198 690 220 690Q229 690 243 677L254 663Q272 640 291 640Q308 640 324 653Q342
668 352 688Q357 698 362 714T374 754ZM337 279Q368 424 336 500Q303 574 236 574Q168 574 105 500T10 279T11 59Q44 -15 111 -15Q179 -15 242 59T337 279ZM279 279Q255 168 212 103Q169 36 122 36Q75 36 60 103Q53 136 55 180T69 279Q80 334 97 378T135 455Q178
522 225 522Q272 522 287 455Q302 390 279 279Z" />
<glyph unicode="&#xf6;" glyph-name="odieresis" horiz-adv-x="386" d="M352 643L366 706H308L294 643H352ZM217 643L231 706H173L159 643H217ZM342 279Q373 424 341 500Q309 574 242 574Q173 574 110 500T15 279Q-16 134 16 59Q49 -15 116 -15Q184 -15 247 59Q310
131 342 279ZM284 279Q260 168 217 103Q174 36 127 36Q80 36 65 103Q58 136 60 180T74 279Q85 334 102 378T140 455Q183 522 231 522Q277 522 292 455Q307 390 284 279Z" />
<glyph unicode="&#xf7;" glyph-name="divide" horiz-adv-x="424" d="M270 400L283 463H225L212 400H270ZM381 249L391 297H44L34 249H381ZM203 82L215 142H157L145 82H203Z" />
<glyph unicode="&#xf8;" glyph-name="oslash" horiz-adv-x="386" d="M357 277Q369 334 372 385Q373 436 360 485L408 557H354L335 528Q304 574 254 574Q188 574 124 499Q60 425 29 281Q17 224 14 174Q10 125 25 70L-33 -15H26L53 24Q84 -16 134 -16Q196 -16 261
56Q325 128 357 277ZM301 479L79 153Q77 183 80 217T93 292Q114 394 157 457Q200 521 248 521Q281 521 301 479ZM293 265Q272 166 229 101Q186 37 137 37Q102 37 83 73L306 401Q309 340 293 265Z" />
<glyph unicode="&#xf9;" glyph-name="ugrave" horiz-adv-x="371" d="M308 666L264 788H208L263 666H308ZM243 0L361 558H304L243 268Q225 185 201 139Q178 92 149 68Q120 42 96 42Q65 42 52 69Q37 97 65 225L135 558H77L2 205Q-25 70 -2 28Q22 -15 70 -15Q92 -15
112 -5Q130 5 154 27Q177 50 203 92L184 0H243Z" />
<glyph unicode="&#xfa;" glyph-name="uacute" horiz-adv-x="371" d="M355 788H300L198 660H243L355 788ZM243 0L361 558H304L243 268Q225 185 201 139Q178 92 149 68Q120 42 96 42Q65 42 52 69Q37 97 65 225L135 558H77L2 205Q-25 70 -2 28Q22 -15 70 -15Q92 -15
112 -5Q130 5 154 27Q177 50 203 92L184 0H243Z" />
<glyph unicode="&#xfb;" glyph-name="ucircumflex" horiz-adv-x="371" d="M319 659L287 788H249L162 658H214L251 708L266 659H319ZM243 0L361 558H304L243 268Q225 185 201 139Q178 92 149 68Q120 42 96 42Q65 42 52 69Q37 97 65 225L135 558H77L2 205Q-25 70
-2 28Q22 -15 70 -15Q92 -15 112 -5Q130 5 154 27Q177 50 203 92L184 0H243Z" />
<glyph unicode="&#xfc;" glyph-name="udieresis" horiz-adv-x="371" d="M343 643L357 706H299L285 643H343ZM208 643L222 706H164L150 643H208ZM252 0L370 558H313L252 268Q234 185 210 139Q188 95 158 68Q129 42 104 42Q75 42 60 69Q46 95 73 225L144 558H86L11
205Q-17 72 7 28Q29 -15 78 -15Q101 -15 120 -5Q140 5 162 27Q185 48 212 92L193 0H252Z" />
<glyph unicode="&#xfd;" glyph-name="yacute" horiz-adv-x="364" d="M399 788H344L242 660H287L399 788ZM412 558H356L159 143L131 558H68L105 19L94 -5Q55 -87 38 -112Q20 -138 -1 -148Q-22 -160 -45 -160H-78L-89 -212H-46Q-11 -212 16 -196T69 -144Q83 -126
103 -89T151 6L412 558Z" />
<glyph unicode="&#xfe;" glyph-name="thorn" horiz-adv-x="384" d="M354 274Q372 360 368 425Q365 492 339 527Q313 561 273 561Q253 561 229 550Q206 539 186 519Q176 509 164 492T138 451L203 758H145L-61 -212H-2L63 93Q70 43 81 24Q92 4 110 -5Q127 -15 149
-15Q218 -15 273 67T354 274ZM295 269Q271 154 229 95Q189 37 146 37Q99 37 88 102Q76 166 99 271Q113 340 136 395Q160 453 190 481Q220 510 248 510Q287 510 305 458Q324 406 295 269Z" />
<glyph unicode="&#xff;" glyph-name="ydieresis" horiz-adv-x="364" d="M369 643L383 706H325L311 643H369ZM234 643L248 706H190L176 643H234ZM421 558H365L168 143L140 558H77L114 19L102 -5Q83 -47 69 -73T47 -112Q38 -125 28 -134T8 -148Q-13 -160 -37 -160H-70L-81
-212H-38Q-2 -212 25 -196Q49 -182 78 -144Q92 -126 112 -89T160 6L421 558Z" />
</font>
</defs>
</svg>
